<svg xmlns="http://www.w3.org/2000/svg" viewBox="0 0 215.65 222.44"><defs><style>.cls-1{fill:#e0cec1;}</style></defs><title>Fichier 1</title><g  fill="none" fill-rule="evenodd" opacity="0.0726227679" id="Calque_2" data-name="Calque 2"><g id="bleu_foncé_-_copie" data-name="bleu foncé - copie"><path class="cls-1" d="M173.67,19a3.39,3.39,0,0,0-4.77.43h0L110.92,89,47.75,19.36a3.39,3.39,0,1,0-5,4.55l63.81,70.4-6.32,7.59h0l-96.29,115a3.39,3.39,0,0,0,5.2,4.36l96.29-115h0l68.69-82.43a3.39,3.39,0,0,0-.43-4.78"/><path class="cls-1" d="M215.15,3.07A5.32,5.32,0,0,0,210.32,0H5.33A5.33,5.33,0,0,0,1.38,8.91l81,89.14a5.33,5.33,0,1,0,7.89-7.16h0L17.36,10.66H198.91L108.17,119h0a5.3,5.3,0,0,0,.1,7l85,94.62a5.33,5.33,0,0,0,7.93-7.12L119.3,122.3,214.41,8.75a5.32,5.32,0,0,0,.74-5.68"/></g></g></svg>
