<?xml version="1.0" encoding="UTF-8"?>
<svg width="112px" height="120px" viewBox="0 0 112 120" version="1.1" xmlns="http://www.w3.org/2000/svg" xmlns:xlink="http://www.w3.org/1999/xlink">
    <!-- Generator: Sketch 52.6 (67491) - http://www.bohemiancoding.com/sketch -->
    <title>Fill 1</title>
    <desc>Created with Sketch.</desc>
    <g id="DESKTOP" stroke="none" stroke-width="1" fill="none" fill-rule="evenodd">
        <g id="HOMEPAGE-(CNC)---LD-SERVICES" transform="translate(-224.000000, -1295.000000)" fill="#0F3C6A">
            <g id="CATALOGUE" transform="translate(94.000000, 1290.000000)">
                <g id="BOOKING" transform="translate(0.000000, 3.000000)">
                    <path d="M188.035607,12.2897594 C188.035607,10.3787015 188.022795,8.46737666 188.041212,6.55631873 C188.050287,5.66191159 187.624569,5.23966388 186.756319,5.23299119 C185.778637,5.22525087 184.800687,5.22525087 183.823005,5.233525 C182.938741,5.24073151 182.554661,5.70728587 182.557063,6.58034041 C182.567205,10.4470298 182.566671,14.3139861 182.558397,18.1806755 C182.556262,19.0641395 182.974773,19.501334 183.847294,19.5077398 C184.780669,19.5149463 185.714045,19.5021347 186.647421,19.5138787 C187.666474,19.5266902 188.065234,19.0230357 188.047351,18.0232001 C188.01292,16.112676 188.037475,14.2010843 188.035607,12.2897594 Z M227.184536,12.4979473 C227.184536,11.3449068 227.186938,10.1915993 227.184002,9.03829187 C227.174393,4.82195359 227.628136,5.25647905 223.29943,5.21644292 C222.135446,5.20549971 221.601097,5.62027402 221.61551,6.85018392 C221.658749,10.5311057 221.65261,14.2130951 221.617912,17.8942838 C221.607503,19.0142278 222.031352,19.556317 223.173716,19.5178823 C223.971236,19.4911915 224.771692,19.4837181 225.568411,19.5197506 C226.783908,19.5747336 227.22644,18.9894054 227.19628,17.8203504 C227.150372,16.0472836 227.184269,14.2723486 227.184536,12.4979473 Z M148.980095,12.3951879 C148.980095,10.532974 148.953138,8.66995947 148.989971,6.80854635 C149.012658,5.67018572 148.507936,5.1804104 147.389593,5.22204798 C146.592607,5.25140781 145.792686,5.25060708 144.9957,5.22231489 C143.869083,5.18201185 143.402262,5.68486564 143.416942,6.82189172 C143.455109,9.79230564 143.423347,12.7632534 143.431088,15.7342011 C143.442031,19.9465358 142.919426,19.4895901 147.469666,19.5176154 C148.531958,19.5240212 149.001982,19.0435876 148.987302,17.9820963 C148.961412,16.1201494 148.979828,14.2576686 148.980095,12.3951879 Z M133.206127,38.5014136 L237.880855,38.5014136 C237.880855,32.8216213 238.069292,27.2205667 237.815196,21.6400641 C237.643041,17.8603865 233.954645,14.4514435 230.387159,14.2603377 C230.387159,15.5855336 230.409046,16.9085943 230.382355,18.2305873 C230.32844,20.9130079 228.626103,22.6292234 225.945818,22.7106302 C225.012709,22.7391893 224.077999,22.7263777 223.144357,22.7151676 C220.127234,22.6796689 218.447585,20.9912119 218.431303,17.9791604 C218.424097,16.6657084 218.429969,15.3522564 218.429969,14.0580218 L191.239031,14.0580218 C191.239031,15.558576 191.262786,16.9734528 191.233693,18.3875289 C191.183247,20.8668329 189.559649,22.5616958 187.079811,22.6999539 C186.015917,22.7594743 184.945351,22.7338511 183.878522,22.7127654 C181.075459,22.6569818 179.41049,20.9968169 179.364849,18.208167 C179.342428,16.8410666 179.361112,15.4731655 179.361112,14.0756377 L152.183253,14.0756377 C152.183253,15.5145362 152.203538,16.8480062 152.178982,18.1804086 C152.127736,20.9327591 150.419261,22.6407004 147.653565,22.7119647 C146.675883,22.737054 145.696332,22.7386555 144.71865,22.7116978 C141.957758,22.6353623 140.262895,20.9119403 140.229265,18.1547855 C140.213784,16.8827042 140.226596,15.6100891 140.226596,14.3137192 C136.326543,15.0493164 133.347321,18.4750746 133.251768,22.4522637 C133.146874,26.8079277 133.213867,31.1678622 133.206394,35.5259284 C133.204793,36.4937351 133.206127,37.4612749 133.206127,38.5014136 Z M133.205243,41.8655161 L133.206127,43.3572623 C133.206394,65.2810469 133.202657,87.2045647 133.208796,109.128349 C133.210398,115.008322 136.998082,118.789334 142.898874,118.790669 C171.359491,118.797342 199.820108,118.797342 228.280725,118.790669 C234.171107,118.789067 237.953721,114.999247 237.955589,109.110467 C237.961728,87.1869488 237.957992,65.2631641 237.958258,43.3396464 L237.959143,41.8655161 L133.205243,41.8655161 Z M140.224194,10.9034417 C140.224194,9.39274507 140.204709,7.9303587 140.228464,6.46877306 C140.271169,3.86348864 141.953221,2.13739763 144.564644,2.03437133 C145.675246,1.9908654 146.790653,1.98526034 147.900187,2.03730731 C150.431538,2.15608116 152.096775,3.86108647 152.170441,6.40871886 C152.211545,7.81825754 152.177914,9.22993147 152.177914,10.6987236 L179.355507,10.6987236 C179.355507,9.26516327 179.336023,7.89699526 179.359511,6.52909416 C179.407287,3.73403849 181.067986,2.08161396 183.876387,2.02769864 C184.943483,2.00741367 186.014049,1.98179054 187.078476,2.03944257 C189.558047,2.17423087 191.183247,3.86855989 191.233693,6.34999921 C191.262519,7.76434222 191.239031,9.17975286 191.239031,10.6792394 L218.4273,10.6792394 C218.4273,9.37486226 218.421428,8.06007576 218.428634,6.74502235 C218.445449,3.74044427 220.130971,2.05652465 223.154766,2.02529647 C224.133249,2.01515399 225.1136,1.9908654 226.090215,2.03383751 C228.617562,2.14460414 230.303617,3.85601523 230.379953,6.38763317 C230.421857,7.76487603 229.940356,9.42984521 230.557713,10.4358197 C231.094197,11.3102088 232.893955,11.3398355 234.048864,11.9168896 C238.631399,14.2066893 241.104831,17.9199069 241.145935,23.0789626 C241.203053,30.2400916 241.16195,37.4020214 241.16195,44.5636843 C241.162216,66.1378201 241.169156,87.711689 241.156878,109.285558 C241.153408,115.48235 237.440458,120.304568 231.639223,121.64391 C230.567322,121.891067 229.436969,121.982883 228.333306,121.983684 C199.820375,122.0013 171.307177,122.005303 142.793979,121.992492 C135.21167,121.989022 130.007774,116.739218 130.005639,109.119541 C129.997899,80.6509171 129.998432,52.1822929 130.005372,23.7136687 C130.006973,16.995873 133.501327,12.5729483 140.224194,10.9034417 Z M214.308009,104.988934 C211.773989,102.452512 209.209008,99.8848611 206.598652,97.2718363 C207.207468,96.6742304 207.899025,95.9957514 208.63569,95.2726989 C210.475751,97.131443 212.297928,98.9717704 214.182029,100.875088 C217.521843,97.5205942 220.681227,94.3467967 223.902801,91.1105429 C224.656014,91.8893791 225.361184,92.6188373 226.008435,93.2879745 C222.077954,97.2187217 218.16162,101.135323 214.308009,104.988934 M185.245596,103.014752 C182.889336,103.031301 181.684782,102.220702 181.648483,100.612851 C181.611383,98.9582916 182.854638,98.0964472 185.281628,98.0975148 C185.725228,98.0977817 186.173099,98.0697564 186.611628,98.1177998 C187.982199,98.2686025 188.948671,99.3082074 188.939329,100.582691 C188.92972,101.863046 187.972056,102.862348 186.575596,103.007813 C186.1368,103.053454 185.689196,103.014752 185.245596,103.014752 M156.150326,102.997804 C153.799137,103.0309 152.587377,102.211227 152.559619,100.602842 C152.53106,98.9512185 153.774048,98.0963137 156.206377,98.0976482 C156.650244,98.0979152 157.097848,98.0704237 157.536644,98.1195347 C158.905079,98.2730065 159.873953,99.3216862 159.858739,100.592433 C159.844059,101.822343 158.932837,102.819242 157.611912,102.987928 C157.132279,103.04905 156.637966,102.997804 156.150326,102.997804 M214.384638,61.7793536 C213.940771,61.7790867 213.494769,61.8073789 213.05357,61.7737485 C211.704353,61.6715229 210.712258,60.6143022 210.733877,59.3307439 C210.755497,58.0423812 211.755599,57.0145203 213.118696,56.9435229 C213.959721,56.900017 214.806886,56.9005508 215.647912,56.9440567 C217.022485,57.0150541 218.001502,58.025833 218.020453,59.3302101 C218.03967,60.6447297 217.085209,61.6691208 215.715439,61.7737485 C215.274508,61.8076458 214.828505,61.7793536 214.384638,61.7793536 M185.233852,61.7819693 C184.834558,61.7825031 184.433663,61.8041226 184.036238,61.7782326 C182.665134,61.6901531 181.671704,60.691652 181.650084,59.4000865 C181.628732,58.1173289 182.621361,57.0302145 183.963639,56.9485408 C184.847637,56.8946255 185.740442,56.8946255 186.624707,56.948007 C187.979796,57.0296807 188.952941,58.0943748 188.935058,59.3942145 C188.917443,60.7047305 187.950437,61.6869502 186.564653,61.7771649 C186.122921,61.8059909 185.677452,61.7817024 185.233852,61.7819693 M156.103163,61.7835173 C153.72048,61.7893893 152.554628,60.987866 152.562368,59.3546588 C152.570108,57.7238538 153.733825,56.9306046 156.120512,56.9306046 C156.564646,56.9306046 157.009581,56.9124549 157.452114,56.9391456 C158.830158,57.0226877 159.820651,58.0073096 159.855349,59.3058147 C159.891115,60.6550323 158.881404,61.6959717 157.434498,61.7795137 C156.992232,61.8051368 156.547031,61.7835173 156.103163,61.7835173 M156.179899,82.3679867 C155.736299,82.3679867 155.289763,82.4021508 154.849899,82.3615809 C153.54659,82.2412056 152.599602,81.2579183 152.561167,80.0221364 C152.521665,78.753258 153.503351,77.6399867 154.846963,77.5289531 C155.684519,77.4598241 156.533819,77.4761054 157.374844,77.5156078 C158.822818,77.5839361 159.854415,78.6219395 159.856017,79.9535411 C159.857618,81.2936839 158.848174,82.2884482 157.37778,82.3778623 C156.979821,82.4021508 156.57946,82.381599 156.179899,82.381599 L156.179899,82.3679867 Z M185.188771,82.3781559 C182.825572,82.3877645 181.639702,81.5688922 181.64931,79.9452937 C181.659186,78.3171578 182.842387,77.5046912 185.205853,77.5044243 C185.649453,77.5044243 186.095189,77.482271 186.536387,77.5148337 C187.913096,77.6167924 188.900921,78.6091546 188.933751,79.8967165 C188.968449,81.2472686 187.978222,82.2729943 186.519038,82.3733515 C186.077573,82.403779 185.632371,82.3781559 185.188771,82.3781559 M214.403402,77.5263908 C214.891309,77.5263908 215.385888,77.4743438 215.865788,77.5365333 C217.141873,77.7025498 218.05096,78.7720483 218.022134,80.0075632 C217.992507,81.2660322 217.077281,82.2557254 215.760627,82.3568833 C214.92227,82.4214749 214.074305,82.412667 213.233279,82.3739654 C211.766622,82.3064378 210.739295,81.2932568 210.732356,79.9675271 C210.725683,78.6436657 211.764487,77.6040609 213.205788,77.5122447 C213.60348,77.4871554 214.004108,77.5087749 214.403402,77.5087749 L214.403402,77.5263908 Z" id="Fill-1"></path>
                </g>
            </g>
        </g>
    </g>
</svg>