<?xml version="1.0" encoding="UTF-8"?>
<svg width="132px" height="120px" viewBox="0 0 132 120" version="1.1" xmlns="http://www.w3.org/2000/svg" xmlns:xlink="http://www.w3.org/1999/xlink">
    <!-- Generator: Sketch 52.6 (67491) - http://www.bohemiancoding.com/sketch -->
    <title>Fill 1</title>
    <desc>Created with Sketch.</desc>
    <g id="DESKTOP" stroke="none" stroke-width="1" fill="none" fill-rule="evenodd">
        <g id="HOMEPAGE-(CNC)---LD-SERVICES" transform="translate(-579.000000, -1300.000000)" fill="#0F3C6A">
            <g id="CATALOGUE" transform="translate(94.000000, 1290.000000)">
                <g id="PURCHASE" transform="translate(366.000000, 0.000000)">
                    <path d="M195.424467,122.193334 C197.260963,122.125711 199.521086,120.9508 200.928144,119.335298 C203.151319,116.782841 202.664949,113.851838 199.760437,112.164066 C198.325726,115.482213 196.889853,118.803846 195.424467,122.193334 M184.931138,125.774534 C187.152453,125.667872 189.284071,124.900323 190.410647,122.428502 C192.188583,118.527082 193.955364,114.62055 195.71285,110.710067 C196.9433,107.972869 196.167617,105.455036 194.634609,103.155176 C193.329101,101.197379 191.367586,100.20721 188.975006,100.409845 C188.466095,100.452835 187.809158,100.8918 187.542851,101.34006 C184.224471,106.927625 180.961631,112.547724 177.70274,118.170379 C177.522181,118.482 177.35603,118.923754 177.43318,119.24467 C178.319243,122.930674 179.870841,125.578871 184.931138,125.774534 M160.884969,72.2528823 C160.665835,69.5003469 158.876745,66.7810417 156.435366,65.7504385 C154.248442,64.8271946 151.502181,65.4636821 150.503646,67.1667917 C147.58891,72.138784 144.689278,77.1193743 141.798477,82.105077 C141.612109,82.4264579 141.461759,82.8147641 141.441774,83.1798323 C141.221014,87.2239332 144.908412,91.4627681 148.957625,91.9098663 C149.6378,91.9849249 150.008213,91.8027394 150.35748,91.2203963 C153.461373,86.0453043 156.630797,80.9090196 159.687285,75.7062745 C160.292401,74.6763684 160.496198,73.4101324 160.884969,72.2528823 M166.36169,77.6238703 C166.173695,77.6329331 165.787015,77.6491997 165.4008,77.6705786 C163.970272,77.7493552 162.966393,78.2882433 162.180717,79.6509169 C159.439569,84.4049372 156.531339,89.0627524 153.699097,93.7644873 C153.486237,94.1179366 153.264315,94.5206503 153.227831,94.9168574 C152.824421,99.3011619 156.115844,103.411026 160.433456,104.026135 C161.238186,104.140698 161.681566,103.946196 162.114954,103.233721 C165.489337,97.6851946 168.916238,92.1685047 172.306423,86.629274 C172.602242,86.1463894 172.863204,85.5912347 172.950811,85.0397981 C173.598221,80.9615374 170.693709,77.6141103 166.36169,77.6238703 M185.180248,95.6400224 C184.986212,92.09089 182.154435,88.6867623 178.765412,88.1511275 C176.997933,87.8720397 176.268494,88.2078281 175.328519,89.7336321 C172.045228,95.0632565 168.78262,100.405429 165.45936,105.709492 C164.874926,106.642496 164.755483,107.533904 164.961138,108.562183 C165.820943,112.864225 168.812132,114.95169 172.723312,116.121954 C173.546865,116.368508 174.024172,116.214441 174.486143,115.408316 C177.579347,110.011999 180.765967,104.669361 183.839186,99.2618897 C184.467076,98.1573898 184.742445,96.8525788 185.180248,95.6400224 M236.420166,73.5481658 C237.567656,72.3623331 238.629398,71.2390105 239.718561,70.143341 C248.747435,61.0635759 248.76254,47.5021392 239.735989,38.4437529 C234.351756,33.0404642 228.961713,27.6425203 223.545411,22.2715323 C222.559889,21.2946088 221.496521,20.370203 220.361811,19.5743032 C211.599477,13.4278647 199.805286,14.5607149 191.989201,22.3261415 C183.501306,30.7587297 175.062909,39.2412795 166.596858,47.6959437 C165.617378,48.6740291 164.598394,49.61261 163.536187,50.6283409 C163.92612,50.981093 164.160126,51.229042 164.429222,51.430515 C167.457824,53.6994687 170.879148,54.9245736 174.645555,55.1055972 C179.9703,55.3616795 184.517037,53.4045791 188.356644,49.850799 C191.992454,46.4854788 195.483027,42.9628375 199.029371,39.5008474 C200.554245,38.0119918 201.46192,38.0003728 202.947057,39.5089807 C206.994876,43.6200068 211.040139,47.7335892 215.085169,51.8474039 C222.143,59.0251427 229.199902,66.2038109 236.420166,73.5481658 M189.158121,95.8826267 C190.645582,96.2683767 192.077737,96.4814687 193.384175,97.0078083 C197.282806,98.5777644 199.245716,101.739288 200.198705,105.673008 C200.33883,106.251866 200.464315,106.957835 200.857501,107.330107 C202.288494,108.686971 203.792454,109.975051 205.341264,111.197367 C206.875201,112.408064 208.645003,112.891414 210.579563,112.347413 C214.829552,111.152285 216.251715,105.022578 213.038835,101.721162 C205.341496,93.8111956 197.629981,85.914707 189.925206,78.0119441 C189.655181,77.7349477 189.222955,77.4800274 189.164395,77.1602731 C189.027059,76.4120111 188.805369,75.4866758 189.120476,74.9054946 C189.405141,74.3805493 190.365333,73.9504148 191.012045,73.9710965 C191.62971,73.9908488 192.332425,74.5422854 192.817866,75.036789 C200.496383,82.8570572 208.155147,90.6966128 215.788815,98.5608007 C216.642345,99.4398924 217.62624,99.9899348 218.769779,99.7891589 C220.226102,99.533309 221.722393,99.1775359 223.041612,98.5354713 C225.40375,97.3861222 226.545663,92.4752457 224.023415,90.0863842 C216.294008,82.7645701 208.846941,75.143916 201.293212,67.6364307 C200.96486,67.3101699 200.610946,66.9890213 200.364856,66.6044332 C199.791808,65.7093073 199.89359,64.813949 200.622565,64.0580184 C201.358511,63.2946517 202.26177,63.2214521 203.169909,63.7257157 C203.532189,63.926724 203.828938,64.2580972 204.129404,64.5564725 C211.441691,71.8122908 218.798827,79.0244217 226.019091,86.3713327 C227.469604,87.8471751 228.963339,88.3070542 230.867922,88.1546132 C233.486607,87.9452393 235.673531,86.9527463 236.672298,84.4128381 C237.650848,81.9242858 236.61583,79.7431716 234.884137,77.9740662 C223.885847,66.7375867 212.845031,55.5429355 201.825826,44.3271377 C201.559752,44.0564156 201.381981,43.699713 201.080353,43.2640014 C200.30955,44.076865 199.776936,44.6929031 199.188783,45.2503816 C196.01355,48.2587669 192.997031,51.465372 189.605916,54.2088446 C181.71454,60.5930073 171.156841,61.0447531 163.014263,55.5399146 C161.754998,54.6887084 160.611226,53.5763076 159.655449,52.3902425 C158.580229,51.0559192 158.781702,49.790148 159.926404,48.5222853 C160.574975,47.8042326 161.238651,47.0977988 161.923473,46.4143706 C168.638312,39.7111509 175.359425,33.0142053 182.077517,26.3142389 C182.345915,26.0465377 182.600603,25.7651261 182.946152,25.4014521 C181.342268,23.8110467 179.78184,22.258519 178.215602,20.7115686 C169.661944,12.2634109 156.098416,11.9106588 147.359087,20.1694271 C141.112957,26.071867 135.026705,32.1597458 129.125892,38.4072693 C121.262634,46.732963 121.179442,59.7273936 128.810088,68.2329489 C131.986949,71.7741805 135.468226,75.0421338 138.814724,78.4304596 C138.852369,78.4685699 138.941138,78.4560214 139.002951,78.4667108 C139.059419,78.4039684 139.122859,78.353542 139.160969,78.2882433 C141.660908,74.0138544 144.235209,69.7805966 146.630112,65.4481127 C148.217264,62.5768313 150.725569,61.4002938 153.751847,61.1930112 C158.869309,60.8425829 163.724182,64.8720439 164.617449,70.0787395 C164.80405,71.1681347 164.834027,72.284486 164.946731,73.5009928 C168.090826,73.2044765 171.05715,73.6599404 173.515726,75.8343156 C175.922016,77.9626796 177.178492,80.6603735 177.265169,83.848853 C184.75267,84.5873551 188.431703,88.3551567 189.158121,95.8826267 M239.215924,76.4480299 C243.505418,85.5958823 240.19308,91.1818213 229.771091,92.4508459 C229.891696,95.5433526 229.147152,98.4174225 226.948841,100.720536 C224.742398,103.03248 221.876926,103.864631 218.622915,104.032409 C219.230355,107.658227 218.762808,110.998915 216.102527,113.726121 C213.465949,116.429624 210.266083,117.211581 206.527329,116.418238 C206.387436,117.074942 206.285189,117.712824 206.11439,118.331883 C204.74614,123.2897 198.880416,127.058664 193.785959,126.302733 C193.440411,126.251377 192.934056,126.388016 192.697726,126.628994 C187.198929,132.233988 177.494528,130.636611 174.493346,123.416579 C173.621923,121.319354 172.558787,120.360789 170.424613,119.691536 C164.926979,117.967512 161.46127,114.217836 160.658864,108.296806 C159.995885,108.19177 159.381938,108.133908 158.787512,107.994015 C153.258506,106.695014 150.412089,102.910016 149.317814,97.596658 C149.104954,96.5628015 148.83795,96.1150062 147.671637,95.9023789 C141.908625,94.8524882 137.692098,89.7959098 137.23129,83.6885111 C137.19225,83.1726286 136.929196,82.5684418 136.570635,82.1984936 C133.418639,78.9435536 130.220399,75.7336952 127.037962,72.5084998 C116.295754,61.6215191 116.322012,45.238995 127.10907,34.4115034 C132.521189,28.9791673 137.943068,23.5570558 143.37401,18.1440072 C154.259132,7.29443957 170.6635,7.28467963 181.536305,18.1186778 C182.960792,19.5382843 184.3474,20.9960011 185.890865,22.578738 C187.007216,21.4351984 188.008075,20.3748506 189.046347,19.3528455 C193.104623,15.3577767 197.901401,12.7507108 203.549617,11.8604648 C212.237591,10.4912847 219.827803,12.8429655 226.131795,18.9624479 C231.827649,24.4916863 237.394533,30.1543105 242.987676,35.7885845 C253.13476,46.0107274 253.24119,62.1594777 243.238414,72.5233721 C241.924075,73.8851161 240.529798,75.1701749 239.215924,76.4480299" id="Fill-1"></path>
                </g>
            </g>
        </g>
    </g>
</svg>