<?xml version="1.0" encoding="UTF-8"?>
<svg width="153px" height="24px" viewBox="0 0 153 24" version="1.1" xmlns="http://www.w3.org/2000/svg" xmlns:xlink="http://www.w3.org/1999/xlink">
    <!-- Generator: Sketch 52.6 (67491) - http://www.bohemiancoding.com/sketch -->
    <title>secure payement</title>
    <desc>Created with Sketch.</desc>
    <g id="Symbols" stroke="none" stroke-width="1" fill="none" fill-rule="evenodd">
        <g id="FOOTER" transform="translate(-86.000000, -340.000000)">
            <g transform="translate(-40.000000, -11.000000)" id="CONTENUS">
                <g transform="translate(126.000000, 43.000000)">
                    <g id="secure-payment" transform="translate(0.000000, 308.000000)">
                        <g id="secure-payement">
                            <text id="Secure-payment" font-family="Raleway-Bold, Raleway" font-size="14" font-weight="bold" line-spacing="16" fill="#FFFFFF">
                                <tspan x="42" y="17">Secure payment</tspan>
                            </text>
                            <g id="picto-secure" fill="#BBAA9E">
                                <path d="M23.0098952,6.43115216 C22.9179631,6.40598212 22.8286913,6.38111903 22.7391637,6.35712563 C21.320535,5.97691472 19.9429867,5.48768478 18.6560915,4.77146402 C17.058868,3.88253174 15.6603958,2.78415604 14.8479457,1.08072728 C14.818376,1.01862071 14.7069525,0.959890604 14.6334376,0.959634811 C12.8689766,0.952933031 11.1045156,0.952881872 9.34005457,0.960146397 C9.26914871,0.96040219 9.16325036,1.02736883 9.13306677,1.09131711 C8.5356875,2.35590719 7.580249,3.29891414 6.45000148,4.08118068 C4.85421046,5.18569542 3.07424839,5.87413704 1.20885142,6.35993936 C1.02053652,6.40894932 0.952546704,6.47908779 0.953569876,6.68203406 C0.962522636,8.42091576 0.955769697,10.1597974 0.960015863,11.8986791 C0.962164525,12.778761 1.05916128,13.6484065 1.25146655,14.5092015 C2.27039291,19.069993 6.36533395,22.6264895 11.028852,22.9773354 C14.1451285,23.2117442 16.9166982,22.3361643 19.2665162,20.2683838 C21.546912,18.2615844 22.8315051,15.7162893 22.9804278,12.6770065 C23.0800337,10.644372 23.0177736,8.603859 23.0271356,6.56682484 C23.0273403,6.52528403 23.0168528,6.48369207 23.0098952,6.43115216 M23.966715,5.68551519 C23.9712169,5.74588237 23.9794535,5.80451015 23.9794023,5.86308678 C23.9771002,8.02008792 24.0396672,10.1795958 23.9573018,12.3335275 C23.7914967,16.6675328 21.8265962,20.0256873 18.1288507,22.2693511 C13.9497026,24.8050796 8.84396938,24.5327111 4.89856499,21.6433742 C2.31653799,19.7525002 0.746377442,17.19329 0.189566958,14.0390026 C0.0614657588,13.3133175 0.0237106929,12.5650202 0.0148602506,11.8262897 C-0.00841692413,9.87417884 0.0126092711,7.92155641 2.4249137e-05,5.96924093 C-0.00161282689,5.71948452 0.0794224365,5.64351396 0.309329301,5.59092289 C2.29853015,5.1355088 4.19815224,4.45474097 5.89539082,3.29031949 C6.75413951,2.70122791 7.51179876,2.00572639 8.03816986,1.09402852 C8.20300295,0.808461072 8.32772768,0.497109675 8.44472746,0.187753464 C8.49557913,0.0534109128 8.54806788,-0.000305644331 8.6934607,1.30742371e-06 C10.893077,0.00388936299 13.0927444,0.00128027307 15.2924118,0.00849363931 C15.3691498,0.00874943244 15.4945396,0.0789390671 15.515003,0.142887349 C15.8722437,1.25707106 16.5904085,2.10707163 17.4756574,2.83081271 C18.8497781,3.95420497 20.4402486,4.65891505 22.1194281,5.17935175 C22.7199793,5.36551799 23.3326038,5.5130083 23.966715,5.68551519 M17.0200898,7.66845422 C17.2530662,7.90040743 17.4743784,8.12074763 17.6780409,8.32359159 C15.0260289,10.9749385 12.3632224,13.6372334 9.70988028,16.2898593 C8.578098,15.1587933 7.43367954,14.0151422 6.29018193,12.8723096 C6.4952257,12.6646056 6.70947803,12.4475907 6.92951128,12.2246926 C7.84898526,13.1464687 8.76625942,14.0661473 9.6948908,14.9971832 C12.162476,12.5284214 14.595529,10.0941916 17.0200898,7.66845422 Z M21.1118334,12.0016001 L22.0715693,12.0016001 C22.0260892,14.7216019 21.0801662,17.0529516 19.2154343,19.0170847 C18.9907456,18.7806296 18.7780281,18.5566571 18.5563578,18.3233738 C20.2062746,16.5822411 21.0686556,14.4740453 21.1118334,12.0016001 Z M17.5409716,20.4085482 C17.3499964,20.11853 17.1833216,19.8654482 17.0128099,19.6065344 C17.3175619,19.3765764 17.6069662,19.1582314 17.9207732,18.9214181 C18.1194733,19.1583849 18.3184804,19.3957609 18.5464432,19.667669 C18.2125309,19.9136908 17.889106,20.1520389 17.5409716,20.4085482 Z" id="Fill-1"></path>
                            </g>
                        </g>
                    </g>
                </g>
            </g>
        </g>
    </g>
</svg>