<?xml version="1.0" encoding="UTF-8"?>
<svg width="130px" height="129px" viewBox="0 0 130 129" version="1.1" xmlns="http://www.w3.org/2000/svg" xmlns:xlink="http://www.w3.org/1999/xlink">
    <!-- Generator: Sketch 52.6 (67491) - http://www.bohemiancoding.com/sketch -->
    <title>Fill 1</title>
    <desc>Created with Sketch.</desc>
    <g id="DESKTOP" stroke="none" stroke-width="1" fill="none" fill-rule="evenodd">
        <g id="HOMEPAGE-(CNC)---LD-SERVICES" transform="translate(-946.000000, -1293.000000)" fill="#0F3C6A">
            <g id="CATALOGUE" transform="translate(94.000000, 1290.000000)">
                <g id="SERVICES" transform="translate(731.000000, 3.000000)">
                    <path d="M129.87943,31.0978164 C129.740143,29.772071 129.029704,28.9514228 127.702164,28.9693723 C126.389701,28.9873217 125.561514,29.7993542 125.57695,31.1222276 C125.592028,32.4282285 126.364931,33.2463638 127.726934,33.2273374 C129.069552,33.208311 129.764195,32.4199718 129.87943,31.0978164 M152.087908,120.041937 C150.837909,120.180506 149.997517,120.869406 149.983516,122.189766 C149.969874,123.509409 150.780471,124.345134 152.099036,124.342621 C153.387088,124.340467 154.242199,123.600592 154.250456,122.230691 C154.258713,120.875149 153.458168,120.19702 152.087908,120.041937 M242.991029,95.6439867 C241.884267,95.857585 241.043157,96.4915591 241.100236,97.8725886 C241.156238,99.2310019 241.986579,99.9816473 243.293657,99.929235 C244.589247,99.8778996 245.426409,99.0612003 245.370048,97.7282752 C245.314763,96.4211973 244.496987,95.7053738 242.991029,95.6439867 M218.775805,8.85487578 C220.1195,8.73138366 220.960251,8.0399714 220.961687,6.70991822 C220.963482,5.39494257 220.152886,4.56244775 218.833961,4.55957584 C217.52796,4.55670393 216.704081,5.32242685 216.69367,6.68084014 C216.682901,8.03961241 217.487035,8.71451119 218.775805,8.85487578 M174.204484,30.314862 C171.204416,31.7903056 168.430151,33.1544627 165.51624,34.5871866 C166.504535,35.8572887 167.224308,36.7824026 167.881616,37.627462 C170.385921,36.3997206 172.720425,35.2549056 175.166574,34.0555244 C174.890153,32.9803532 174.613014,31.903028 174.204484,30.314862 M169.301058,96.5960248 C172.484928,97.6747859 175.360428,98.6490812 178.434807,99.6905075 C178.651996,98.0980336 178.808156,96.9528596 178.953187,95.8913299 C176.288414,94.9751908 173.790211,94.1157718 171.232776,93.2362494 C170.648701,94.2525465 170.091192,95.222175 169.301058,96.5960248 M205.450503,94.3404987 C204.439232,93.0463444 203.717664,92.1233844 203.062869,91.2851458 C200.55641,92.5139641 198.221906,93.6587792 195.753859,94.8685711 C196.069051,95.9957957 196.382089,97.1147635 196.786669,98.56077 C199.726428,97.129123 202.47664,95.7890182 205.450503,94.3404987 M217.617348,80.6418485 C218.682109,77.4551057 219.652096,74.551605 220.677727,71.4818925 C219.037867,71.2596785 217.942233,71.1114161 216.911217,70.9717695 C216.000822,73.6139265 215.13889,76.1150008 214.253265,78.686078 C215.235458,79.25687 216.204369,79.8204823 217.617348,80.6418485 M191.956476,33.0022515 C194.642789,33.9273654 197.142786,34.7882203 199.697709,35.6677427 C200.010747,35.1364394 200.321631,34.6338552 200.607386,34.1172704 C200.880936,33.622943 201.128279,33.114256 201.550808,32.2950437 C198.480737,31.2475146 195.607391,30.2674755 192.54809,29.2235363 C192.308644,30.7521102 192.136689,31.8498977 191.956476,33.0022515 M219.590709,53.1673654 C218.130343,50.1705276 216.790597,47.42211 215.363617,44.4938391 C214.121516,45.4666985 213.170196,46.2112411 212.318675,46.8778832 C213.556109,49.4141384 214.694462,51.748642 215.875176,54.1689439 C216.992708,53.8677524 218.069315,53.5773305 219.590709,53.1673654 M153.337548,48.2804521 C152.272428,51.4194494 151.287004,54.3261809 150.241629,57.408099 C151.845231,57.6389288 152.943019,57.7965248 154.019626,57.951249 C154.923919,55.3453499 155.793748,52.8399677 156.700195,50.2290428 C155.724463,49.6632766 154.717141,49.0795609 153.337548,48.2804521 M151.322185,75.7700127 C152.806603,78.7930566 154.153888,81.5375253 155.566508,84.4144608 C156.816148,83.4731924 157.753468,82.7677796 158.656324,82.088214 C157.416736,79.5530357 156.25469,77.1758125 155.063206,74.7389971 C153.906545,75.0577791 152.827425,75.3553807 151.322185,75.7700127 M221.34042,67.4184993 C221.101334,63.8501515 220.883069,60.5941239 220.652239,57.1471142 C219.070894,57.5904653 217.958029,57.9020675 216.94927,58.1845916 C217.163587,61.2342007 217.362107,64.057288 217.560269,66.8753493 C218.714418,67.0412021 219.766255,67.1923364 221.34042,67.4184993 M164.553791,40.0983813 C163.828634,39.1546 163.113528,38.2244603 162.19344,37.0272329 C159.874014,39.6528763 157.689927,42.1255906 155.399938,44.7182071 C156.779172,45.5122901 157.79152,46.0952878 158.719147,46.629463 C160.718355,44.3918863 162.577558,42.3104698 164.553791,40.0983813 M182.511842,100.329148 C186.070138,100.096883 189.326525,99.8847204 192.774611,99.6599934 C192.347774,98.0937257 192.044428,96.9787068 191.766571,95.9595378 C188.719116,96.1638024 185.893875,96.3529894 183.056787,96.5432534 C182.894165,97.6733499 182.742672,98.7255458 182.511842,100.329148 M179.166426,32.9480442 C182.191265,32.7495234 185.019737,32.5635673 187.899186,32.3747392 C188.056064,31.2223854 188.205044,30.1263929 188.414694,28.5877673 C184.905579,28.8074684 181.643807,29.011374 178.184592,29.2282031 C178.581993,30.7330838 178.865953,31.808614 179.166426,32.9480442 M208.72807,91.9219918 C211.090933,89.2331663 213.259225,86.7661959 215.534855,84.1768103 C214.132286,83.3791374 213.119938,82.8029605 212.210619,82.2863758 C210.200641,84.5426198 208.345029,86.6254723 206.411875,88.7955591 C207.051593,89.6589269 207.750185,90.6023493 208.72807,91.9219918 M167.661556,91.2058093 C165.399927,89.1972674 163.309895,87.3405778 161.115397,85.3912691 C160.2269,86.0711937 159.256194,86.8135824 158.014811,87.7634665 C160.652302,90.0746359 163.135067,92.2504664 165.72912,94.523224 C166.512433,93.1784523 167.079276,92.2059518 167.661556,91.2058093 M203.291904,37.7057216 C205.558199,39.7214432 207.64536,41.5781328 209.838781,43.5288775 C210.720098,42.8489528 211.683265,42.1062052 212.913519,41.1563211 C210.274593,38.838331 207.800443,36.6653723 205.211416,34.3915378 C204.427385,35.7452842 203.864132,36.7170667 203.291904,37.7057216 M150.226551,71.7737503 C151.845231,71.3311172 152.966712,71.0248999 153.995933,70.7438117 C153.782694,67.6992284 153.584532,64.8668075 153.385293,62.0225399 C152.192733,61.8663799 151.087765,61.7220664 149.568525,61.5231866 C149.792893,65.0179418 150.000747,68.2574559 150.226551,71.7737503 M214.616921,91.5927991 C219.971596,95.952358 225.235807,100.238324 230.581508,104.591062 C236.125011,98.3173757 240.170814,91.3903295 242.782098,83.4599098 C236.318147,80.9968883 230.035486,78.6031516 223.599536,76.1508997 C221.695819,81.9848252 218.817089,87.0993374 214.616921,91.5927991 M166.640592,121.792007 C169.104691,115.318722 171.50812,109.005906 173.946371,102.601188 C168.013006,100.752037 162.932957,97.8234072 158.388519,93.7233971 C154.027883,99.0845345 149.752686,104.340847 145.411436,109.678291 C151.765895,115.197025 158.687556,119.240674 166.640592,121.792007 M197.261611,26.3975772 C203.159078,28.2664724 208.220819,31.2202315 212.750897,35.4006551 C217.117277,30.0362867 221.405756,24.7681274 225.74593,19.4360681 C219.496654,13.9101548 212.5653,9.8431717 204.587853,7.19239905 C202.142781,13.6021425 199.744736,19.8883938 197.261611,26.3975772 M140.385594,24.2802617 C134.822705,30.6182074 130.732746,37.5596132 128.151617,45.5090592 C134.656852,47.9821324 140.926949,50.3661765 147.329153,52.8004789 C149.236101,46.8915247 152.174783,41.7723457 156.350181,37.2756531 C150.9833,32.9071195 145.75786,28.6534622 140.385594,24.2802617 M170.669882,122.773123 C185.653352,129.384618 218.553232,120.477749 227.527591,107.400508 C222.265534,103.119568 216.995939,98.8328835 211.691522,94.5167622 C201.762253,102.671191 190.561087,105.768186 177.949455,103.648358 C175.49469,110.09759 173.08085,116.439844 170.669882,122.773123 M243.837884,79.4614936 C250.022541,62.7943657 241.636924,31.6248118 228.569017,22.4770614 C224.276948,27.7520416 219.980212,33.0324065 215.635013,38.3723636 C219.550502,43.0779876 222.362461,48.283683 223.926216,54.1463276 C225.504689,60.0628206 225.730852,66.0331618 224.589986,72.1234053 C231.069732,74.5936066 237.418807,77.0139085 243.837884,79.4614936 M159.299991,34.384717 C164.077054,30.3902496 169.327264,27.5388023 175.254526,25.957816 C181.181789,24.3764707 187.153207,24.2023612 193.268939,25.3432273 C195.729448,18.8749687 198.154775,12.4989702 200.581539,6.12045876 C183.58809,-0.0437364093 152.654392,8.28731462 143.444537,21.4697391 C148.668181,25.7248323 153.899365,29.9856693 159.299991,34.384717 M142.476703,106.761149 C146.848468,101.389601 151.136229,96.1207237 155.397425,90.8855914 C145.967509,76.2384929 144.962341,72.5096772 146.215211,56.7841767 C139.877266,54.3703366 133.499113,51.9414189 127.10696,49.5067575 C122.092965,66.4858466 126.0422,90.578656 142.476703,106.761149 M213.256712,64.7698806 C213.429745,49.3692648 201.15987,36.8244043 185.740946,36.6370122 C170.407102,36.450338 157.801213,48.8440643 157.675208,64.2306795 C157.548844,79.6194486 169.909184,92.168976 185.290774,92.2691338 C200.606309,92.3692917 213.084398,80.0990575 213.256712,64.7698806 M126.524681,37.3539126 C123.694414,36.5321875 121.670435,34.7268332 121.493813,31.4119315 C121.353089,28.7658257 122.508315,26.7296417 124.860768,25.5571846 C127.792988,24.0957415 130.417195,24.8686442 132.537024,26.973395 C154.181171,0.977945464 180.675256,-6.3439883 212.53335,5.51233188 C213.477131,2.50364749 215.4408,0.41612813 219.010583,0.475361268 C221.507709,0.51664497 223.403528,1.72177008 224.436339,3.96544952 C225.760289,6.84130809 225.095083,9.43823243 222.68232,11.7267855 C235.325184,20.8723819 243.776497,32.857938 247.782093,47.8335111 C251.77297,62.7559539 250.41348,77.3050484 244.083073,91.4599733 C247.183659,92.358522 249.201893,94.1006943 249.441698,97.3341056 C249.637346,99.9690827 248.560739,102.048345 246.221928,103.268907 C243.251296,104.819379 240.563189,104.121146 238.190632,101.68469 C228.993342,114.211601 217.08066,122.676196 202.174731,126.715537 C187.24798,130.759904 172.706783,129.364873 158.489036,123.081135 C157.507201,126.307008 155.617126,128.396322 152.133858,128.43617 C149.561345,128.465248 147.598036,127.269456 146.517839,124.962595 C145.172349,122.088531 145.864121,119.496633 147.995437,117.411626 C121.857827,95.7814794 114.699592,69.1983653 126.524681,37.3539126" id="Fill-1"></path>
                </g>
            </g>
        </g>
    </g>
</svg>